<svg xmlns="http://www.w3.org/2000/svg" xmlns:xlink="http://www.w3.org/1999/xlink" width="828" height="1792" viewBox="0 0 828 1792">
  <defs>
    <clipPath id="clip-LaunchScreenImage">
      <rect width="828" height="1792"/>
    </clipPath>
  </defs>
  <g id="LaunchScreenImage" clip-path="url(#clip-LaunchScreenImage)">
    <g id="IconSmaller" transform="translate(242.333 743.155)">
      <g id="Gruppe_2" data-name="Gruppe 2" transform="translate(140.748 111.939) rotate(-17)">
        <g id="Henkel" transform="translate(100.552 64.277)" fill="#ededed">
          <path d="M 46.26090240478516 80.04620361328125 C 46.05034255981445 80.04620361328125 45.83726119995117 80.03941345214844 45.6275634765625 80.02600860595703 L 45.61960220336914 80.02550506591797 L 45.61162185668945 80.02550506591797 L 10.06920146942139 80.02550506591797 C 4.67423152923584 80.02550506591797 0.2851016223430634 75.63637542724609 0.2851016223430634 70.24140167236328 C 0.2851016223430634 64.84593200683594 4.67423152923584 60.45640182495117 10.06920146942139 60.45640182495117 L 36.23220062255859 60.45640182495117 L 36.48220062255859 60.45640182495117 L 36.48220062255859 60.20640182495117 L 36.48220062255859 20.06910133361816 L 36.48220062255859 19.81910133361816 L 36.23220062255859 19.81910133361816 L 10.03410148620605 19.81910133361816 C 4.639131546020508 19.81910133361816 0.2500016093254089 15.42957210540771 0.2500016093254089 10.03410148620605 C 0.2500016093254089 4.639132022857666 4.639131546020508 0.2500018179416656 10.03410148620605 0.2500018179416656 L 46.25460052490234 0.2500018179416656 C 51.65007019042969 0.2500018179416656 56.03960037231445 4.639132022857666 56.03960037231445 10.03410148620605 L 56.03958129882812 10.03976154327393 L 56.0395622253418 10.0476016998291 L 56.03958129882812 10.05545139312744 L 56.03960037231445 10.06110191345215 L 56.03960037231445 69.39645385742188 L 56.03960037231445 69.40685272216797 L 56.04046249389648 69.41721343994141 C 56.06318283081055 69.68978118896484 56.07470321655273 69.96707916259766 56.07470321655273 70.24140167236328 C 56.07470321655273 73.49847412109375 54.46053314208984 76.53234100341797 51.75679016113281 78.35700988769531 C 50.13274002075195 79.4622802734375 48.23257064819336 80.04620361328125 46.26090240478516 80.04620361328125 Z" stroke="none"/>
          <path d="M 46.26090621948242 79.79620361328125 C 48.18219757080078 79.79620361328125 50.03372955322266 79.22725677490234 51.61693954467773 78.14978790283203 C 54.251708984375 76.37166595458984 55.82470703125 73.41526031494141 55.82470703125 70.24140167236328 C 55.82470703125 69.97397613525391 55.81347274780273 69.70366668701172 55.79132843017578 69.43798065185547 L 55.78960800170898 69.39644622802734 L 55.7895622253418 10.0476016998291 L 55.78960800170898 10.03410148620605 C 55.78960800170898 4.776979446411133 51.5122184753418 0.5000017881393433 46.25459671020508 0.5000017881393433 L 10.03410720825195 0.5000017881393433 C 4.776985168457031 0.5000017881393433 0.4999960660934448 4.776979446411133 0.4999960660934448 10.03410148620605 C 0.4999960660934448 15.29172420501709 4.776985168457031 19.56910133361816 10.03410720825195 19.56910133361816 L 36.73219680786133 19.56910133361816 L 36.73219680786133 60.70640182495117 L 10.06919574737549 60.70640182495117 C 4.812085151672363 60.70640182495117 0.5351071357727051 64.98377990722656 0.5351071357727051 70.24140167236328 C 0.5351071357727051 75.49852752685547 4.812085151672363 79.77550506591797 10.06919574737549 79.77550506591797 L 45.64349746704102 79.77652740478516 C 45.84790802001953 79.78958129882812 46.05562973022461 79.79620361328125 46.26090621948242 79.79620361328125 M 46.26090621948242 80.29620361328125 C 46.04286193847656 80.29620361328125 45.82620620727539 80.28921508789062 45.61161804199219 80.27550506591797 L 10.06919574737549 80.27550506591797 C 4.527007102966309 80.27550506591797 0.03510716557502747 75.78269958496094 0.03510716557502747 70.24140167236328 C 0.03510716557502747 64.69920349121094 4.527007102966309 60.20640182495117 10.06919574737549 60.20640182495117 L 36.23219680786133 60.20640182495117 L 36.23219680786133 20.06910133361816 L 10.03410720825195 20.06910133361816 C 4.491896152496338 20.06910133361816 -3.9472793105233e-06 15.57630157470703 -3.9472793105233e-06 10.03410148620605 C -3.9472793105233e-06 4.492801666259766 4.491896152496338 1.806640625545697e-06 10.03410720825195 1.806640625545697e-06 L 46.25459671020508 1.806640625545697e-06 C 51.79680633544922 1.806640625545697e-06 56.28960800170898 4.492801666259766 56.28960800170898 10.03410148620605 C 56.28960800170898 10.03850173950195 56.2895622253418 10.043212890625 56.2895622253418 10.0476016998291 C 56.2895622253418 10.052001953125 56.28960800170898 10.05670166015625 56.28960800170898 10.06110191345215 L 56.28960800170898 69.39644622802734 C 56.31281661987305 69.67493438720703 56.32470703125 69.9569091796875 56.32470703125 70.24140167236328 C 56.32470703125 73.70639801025391 54.56817245483398 76.76129913330078 51.89664077758789 78.56423187255859 C 50.2904052734375 79.65737915039062 48.35038375854492 80.29620361328125 46.26090621948242 80.29620361328125 Z" stroke="none" fill="#707070"/>
        </g>
        <rect id="Rechteck_5" data-name="Rechteck 5" width="118.698" height="150.586" rx="30" transform="translate(5.039 29.101)" fill="#ffd417" stroke="#707070" stroke-width="0.5"/>
        <line id="Linie_1" data-name="Linie 1" y1="1.733" x2="102.878" transform="translate(13.583 169.501)" fill="#ffd417" stroke="#707070" stroke-width="2"/>
        <rect id="Rechteck_8" data-name="Rechteck 8" width="80.271" height="7.995" rx="3.997" transform="translate(24.207 148.522) rotate(-90)" fill="#707070"/>
        <ellipse id="Ellipse_25" data-name="Ellipse 25" cx="4.023" cy="4.016" rx="4.023" ry="4.016" transform="translate(92.524 88.355)" fill="#d1ae11"/>
        <ellipse id="Ellipse_26" data-name="Ellipse 26" cx="4.023" cy="4.016" rx="4.023" ry="4.016" transform="translate(80.501 156.582)" fill="#ffec98"/>
        <ellipse id="Ellipse_27" data-name="Ellipse 27" cx="4.023" cy="4.016" rx="4.023" ry="4.016" transform="translate(36.271 152.543)" fill="#d1ae11"/>
        <ellipse id="Ellipse_28" data-name="Ellipse 28" cx="4.023" cy="4.016" rx="4.023" ry="4.016" transform="translate(88.533 140.532)" fill="#ac8f0e"/>
        <ellipse id="Ellipse_29" data-name="Ellipse 29" cx="2.012" cy="2.008" rx="2.012" ry="2.008" transform="translate(92.547 128.493)" fill="#ffec98"/>
        <ellipse id="Ellipse_30" data-name="Ellipse 30" cx="4.023" cy="4.016" rx="4.023" ry="4.016" transform="translate(84.489 100.391)" fill="#d1ae11"/>
        <ellipse id="Ellipse_31" data-name="Ellipse 31" cx="2.012" cy="2.008" rx="2.012" ry="2.008" transform="translate(68.43 140.52)" fill="#ac8f0e"/>
        <ellipse id="Ellipse_32" data-name="Ellipse 32" cx="4.023" cy="4.016" rx="4.023" ry="4.016" transform="translate(16.145 112.393)" fill="#ffec98"/>
        <ellipse id="Ellipse_33" data-name="Ellipse 33" cx="2.012" cy="2.008" rx="2.012" ry="2.008" transform="translate(40.243 68.256)" fill="#d1ae11"/>
        <ellipse id="Ellipse_34" data-name="Ellipse 34" cx="4.023" cy="4.016" rx="4.023" ry="4.016" transform="translate(68.4 88.341)" fill="#ac8f0e"/>
        <ellipse id="Ellipse_35" data-name="Ellipse 35" cx="4.023" cy="4.016" rx="4.023" ry="4.016" transform="translate(44.287 108.396)" fill="#ffec98"/>
        <ellipse id="Ellipse_36" data-name="Ellipse 36" cx="2.012" cy="2.008" rx="2.012" ry="2.008" transform="translate(36.239 96.35)" fill="#d1ae11"/>
        <ellipse id="Ellipse_37" data-name="Ellipse 37" cx="2.012" cy="2.008" rx="2.012" ry="2.008" transform="translate(88.499 80.325)" fill="#ac8f0e"/>
        <ellipse id="Ellipse_38" data-name="Ellipse 38" cx="4.023" cy="4.016" rx="4.023" ry="4.016" transform="translate(104.598 108.431)" fill="#ffec98"/>
        <ellipse id="Ellipse_39" data-name="Ellipse 39" cx="4.023" cy="4.016" rx="4.023" ry="4.016" transform="translate(12.105 80.281)" fill="#d1ae11"/>
        <ellipse id="Ellipse_40" data-name="Ellipse 40" cx="2.012" cy="2.008" rx="2.012" ry="2.008" transform="translate(16.166 148.517)" fill="#ac8f0e"/>
        <ellipse id="Ellipse_41" data-name="Ellipse 41" cx="2.012" cy="2.008" rx="2.012" ry="2.008" transform="translate(112.627 88.366)" fill="#ffec98"/>
        <ellipse id="Ellipse_42" data-name="Ellipse 42" cx="2.012" cy="2.008" rx="2.012" ry="2.008" transform="translate(60.368 104.391)" fill="#d1ae11"/>
        <ellipse id="Ellipse_43" data-name="Ellipse 43" cx="2.012" cy="2.008" rx="2.012" ry="2.008" transform="translate(84.501 120.46)" fill="#ac8f0e"/>
        <ellipse id="Ellipse_44" data-name="Ellipse 44" cx="2.012" cy="2.008" rx="2.012" ry="2.008" transform="translate(40.28 132.476)" fill="#ffec98"/>
        <ellipse id="Ellipse_45" data-name="Ellipse 45" cx="2.012" cy="2.008" rx="2.012" ry="2.008" transform="translate(60.377 120.446)" fill="#d1ae11"/>
        <rect id="Rechteck_9" data-name="Rechteck 9" width="80.271" height="7.995" rx="3.997" transform="translate(96.58 148.564) rotate(-90)" fill="#707070"/>
        <rect id="Rechteck_10" data-name="Rechteck 10" width="80.271" height="7.995" rx="3.997" transform="translate(72.455 148.55) rotate(-90)" fill="#707070"/>
        <g id="Schaum" transform="translate(0 0)" fill="#fff">
          <path d="M 84.93662261962891 80.07441711425781 L 84.92700958251953 80.07441711425781 C 82.87200927734375 80.07321929931641 80.88150787353516 79.69638824462891 79.01079559326172 78.95438385009766 C 77.20513916015625 78.23818969726562 75.59126281738281 77.21568298339844 74.21397399902344 75.915283203125 L 74.16842651367188 75.87228393554688 L 74.10799407958984 75.85585021972656 C 72.23645782470703 75.34645080566406 70.47390747070312 74.57928466796875 68.86930847167969 73.57566833496094 C 67.28736114501953 72.58620452880859 65.89539337158203 71.39020538330078 64.73209381103516 70.02086639404297 C 62.31840896606445 67.1796875 61.04150772094727 63.79770278930664 61.03944396972656 60.24052047729492 C 61.03917694091797 59.78708648681641 61.05986022949219 59.33770370483398 61.10091018676758 58.90483474731445 L 61.13322448730469 58.56400299072266 L 60.79872512817383 58.63698577880859 C 59.3455924987793 58.95405197143555 57.84379196166992 59.11483764648438 56.33507537841797 59.11483764648438 L 56.32249069213867 59.11483764648438 C 52.50897598266602 59.11261749267578 48.84637451171875 58.09573745727539 45.73060989379883 56.17413711547852 L 45.59949111938477 56.09326934814453 L 45.46830749511719 56.17403411865234 C 42.35692596435547 58.08970260620117 38.69904327392578 59.10231781005859 34.89011001586914 59.10240173339844 L 34.87764358520508 59.10240173339844 C 30.06469345092773 59.0996208190918 25.50420951843262 57.47533416748047 22.03629302978516 54.52877044677734 C 18.58664321899414 51.59773635864258 16.57567596435547 47.66582107543945 16.37384223937988 43.45733642578125 L 16.3637752532959 43.24755096435547 L 16.15540885925293 43.22128677368164 C 11.7803430557251 42.66962051391602 7.760009288787842 40.73930358886719 4.834992408752441 37.78593444824219 C 1.889192581176758 34.81156921386719 0.2656092643737793 30.99790191650391 0.2633092403411865 27.04741859436035 C 0.2607759237289429 22.69355201721191 2.178709268569946 18.59902000427246 5.66377592086792 15.51808547973633 C 9.157376289367676 12.42960262298584 13.80634212493896 10.72870254516602 18.75425910949707 10.72870254516602 L 18.76670837402344 10.72870254516602 C 20.61215972900391 10.72976970672607 22.43490982055664 10.96968555450439 24.18435859680176 11.44180297851562 L 24.40124320983887 11.50033569335938 L 24.48254203796387 11.29091930389404 C 27.04180908203125 4.699352741241455 34.07332611083984 0.2706359326839447 41.97954177856445 0.2706359326839447 L 41.99195861816406 0.2706359326839447 C 48.22942733764648 0.2742525935173035 54.01019287109375 3.022619247436523 57.45554351806641 7.622486114501953 L 57.58162689208984 7.79081916809082 L 57.76904296875 7.695419311523438 C 60.56299209594727 6.27335262298584 63.75460815429688 5.52168607711792 66.99885559082031 5.52168607711792 L 67.01122283935547 5.52168607711792 C 69.71614074707031 5.523252487182617 72.32311248779297 6.027385711669922 74.75972747802734 7.020069122314453 C 77.11219024658203 7.978486061096191 79.17807769775391 9.337002754211426 80.89999389648438 11.05790233612061 L 81.02690887451172 11.18475246429443 L 81.18769073486328 11.10508632659912 C 83.93412780761719 9.744352340698242 87.06191253662109 9.025118827819824 90.23294067382812 9.025118827819824 L 90.24539184570312 9.025118827819824 C 93.70236206054688 9.027119636535645 97.07476043701172 9.875136375427246 99.99799346923828 11.47745227813721 C 102.8369750976562 13.03358554840088 105.1511764526367 15.23693561553955 106.6903915405273 17.84926986694336 L 106.7752456665039 17.9933032989502 L 106.9407730102539 17.96988677978516 C 107.9114761352539 17.8326358795166 108.9053268432617 17.76305198669434 109.8947296142578 17.76305198669434 L 109.9072723388672 17.76305198669434 C 114.8583908081055 17.76591873168945 119.5124282836914 19.4706859588623 123.0120391845703 22.56333541870117 C 126.5029602050781 25.64826965332031 128.4268798828125 29.74620246887207 128.4293975830078 34.10223770141602 C 128.4319305419922 38.45620346069336 126.5142593383789 42.55070114135742 123.0296249389648 45.6314697265625 C 119.536376953125 48.71988677978516 114.8874588012695 50.42083740234375 109.9392623901367 50.42098617553711 L 109.9268264770508 50.42098617553711 C 108.2641754150391 50.42003631591797 106.6160278320312 50.2246208190918 105.0281753540039 49.84018707275391 L 104.7900085449219 49.78252029418945 L 104.7275924682617 50.01948547363281 C 103.7827224731445 53.60660171508789 101.4452285766602 56.84431838989258 98.14569091796875 59.13618469238281 L 98.03032684326172 59.2163200378418 L 98.03875732421875 59.35651779174805 C 98.04764556884766 59.50430297851562 98.05430603027344 59.6573371887207 98.06017303466797 59.79233551025391 L 98.06285858154297 59.85410308837891 L 98.09402465820312 59.90748596191406 C 99.246826171875 61.88255310058594 99.85687255859375 64.11790466308594 99.85819244384766 66.37188720703125 C 99.86030578613281 70.02826690673828 98.31192779541016 73.46683502197266 95.49826049804688 76.05416870117188 C 92.67899322509766 78.64666748046875 88.92812347412109 80.07441711425781 84.93662261962891 80.07441711425781 Z" stroke="none"/>
          <path d="M 84.93662261962891 79.82441711425781 C 88.86527252197266 79.82441711425781 92.55602264404297 78.42010498046875 95.32904052734375 75.87015533447266 C 98.090576171875 73.33074951171875 99.61027526855469 69.95758819580078 99.60819244384766 66.37203216552734 C 99.60689544677734 64.16223907470703 99.00864410400391 61.97042083740234 97.87812805175781 60.03351974487305 L 97.8157958984375 59.92673492431641 L 97.81040954589844 59.80320358276367 C 97.80457305908203 59.66917037963867 97.7979736328125 59.51725387573242 97.78920745849609 59.37152099609375 L 97.77236175537109 59.09111785888672 L 98.00305938720703 58.93087005615234 C 101.2538223266602 56.67287063598633 103.5561065673828 53.48546981811523 104.48583984375 49.95581817626953 L 104.6106796264648 49.48188781738281 L 105.0869903564453 49.59720230102539 C 106.6556625366211 49.97700119018555 108.2840576171875 50.17005157470703 109.9266738891602 50.17098617553711 L 109.9392623901367 50.17098617553711 C 114.8264083862305 50.17083740234375 119.4165267944336 48.49215316772461 122.8640441894531 45.44418716430664 C 126.294189453125 42.41155242919922 128.1819000244141 38.38363647460938 128.1793975830078 34.10236740112305 C 128.1769104003906 29.8189697265625 126.2829895019531 25.78751945495605 122.8464889526367 22.75066947937012 C 119.3925628662109 19.69840240478516 114.7972793579102 18.0158863067627 109.9074249267578 18.01305198669434 L 109.8947296142578 18.01305198669434 C 108.9169921875 18.01305198669434 107.9349060058594 18.08181953430176 106.9757766723633 18.21743583679199 L 106.6447296142578 18.26423645019531 L 106.4749908447266 17.97616958618164 C 104.958625793457 15.40260219573975 102.677360534668 13.23118591308594 99.87784576416016 11.69668579101562 C 96.99127960205078 10.11446952819824 93.66037750244141 9.277102470397949 90.24554443359375 9.275118827819824 L 90.23294067382812 9.275118827819824 C 87.10021209716797 9.275118827819824 84.01079559326172 9.985369682312012 81.29869079589844 11.32910251617432 L 80.97711181640625 11.48841953277588 L 80.72325897216797 11.23471927642822 C 79.0250244140625 9.537502288818359 76.98686218261719 8.197385787963867 74.66539001464844 7.251602649688721 C 72.25882720947266 6.271152496337891 69.68354034423828 5.77323579788208 67.01137542724609 5.77168607711792 L 66.99885559082031 5.77168607711792 C 63.79384231567383 5.77168607711792 60.64144134521484 6.513952732086182 57.88244247436523 7.918219089508057 L 57.50761032104492 8.109003067016602 L 57.25545883178711 7.772369384765625 C 53.85702514648438 3.235136032104492 48.15099334716797 0.524219274520874 41.99210739135742 0.5206359624862671 L 41.97954177856445 0.5206359624862671 C 34.17567443847656 0.5206359624862671 27.23782539367676 4.885252475738525 24.7155933380127 11.38140296936035 L 24.55297660827637 11.80021953582764 L 24.11922645568848 11.6831693649292 C 22.39095878601074 11.21676921844482 20.5900764465332 10.97975254058838 18.76685905456543 10.97870254516602 L 18.75425910949707 10.97870254516602 C 13.86739253997803 10.97870254516602 9.277242660522461 12.65733623504639 5.82935905456543 15.7053861618042 C 2.398759365081787 18.7381534576416 0.5108259320259094 22.7661190032959 0.5133092403411865 27.04728507995605 C 0.5155759453773499 30.93148612976074 2.113459348678589 34.68273544311523 5.012625694274902 37.61000442504883 C 7.898476123809814 40.52385330200195 11.86684226989746 42.42855072021484 16.18667602539062 42.97325134277344 L 16.60342597961426 43.02580261230469 L 16.62355995178223 43.44536972045898 C 16.82204246520996 47.58400344848633 18.80180931091309 51.4525032043457 22.19816017150879 54.33825302124023 C 25.62097549438477 57.24648666381836 30.12402534484863 58.84965133666992 34.87749099731445 58.85240173339844 L 34.89009094238281 58.85240173339844 C 38.65274429321289 58.85230255126953 42.26529312133789 57.85253524780273 45.33722686767578 55.96115112304688 L 45.59959411621094 55.79961776733398 L 45.86184310913086 55.96135330200195 C 48.93817520141602 57.85863494873047 52.55545806884766 58.86265182495117 56.32234191894531 58.86483764648438 L 56.33507537841797 58.86483764648438 C 57.82589340209961 58.86483764648438 59.30974197387695 58.70600128173828 60.74542617797852 58.39273452758789 L 61.41444396972656 58.24675369262695 L 61.34979248046875 58.92843627929688 C 61.30949401855469 59.35343551635742 61.28917694091797 59.79483413696289 61.28944396972656 60.24038696289062 C 61.29147720336914 63.73751831054688 62.54780960083008 67.06358337402344 64.92262268066406 69.85900115966797 C 66.06927490234375 71.20873260498047 67.44172668457031 72.38788604736328 69.00187683105469 73.36370086669922 C 70.58572387695312 74.35433959960938 72.32575988769531 75.11165618896484 74.17366027832031 75.61461639404297 L 74.29452514648438 75.64752197265625 L 74.38561248779297 75.7335205078125 C 75.73974609375 77.01206970214844 77.32688903808594 78.01753234863281 79.10297393798828 78.72200012207031 C 80.94427490234375 79.45233917236328 82.90380859375 79.82323455810547 84.92685699462891 79.82441711425781 L 84.93662261962891 79.82441711425781 M 84.93662261962891 80.32442474365234 C 84.93303680419922 80.32442474365234 84.93044281005859 80.32442474365234 84.92685699462891 80.32441711425781 C 80.6583251953125 80.32193756103516 76.80161285400391 78.70230102539062 74.04234313964844 76.09706878662109 C 66.37314605712891 74.00965118408203 60.79377746582031 67.69838714599609 60.78944396972656 60.24066925048828 C 60.78917694091797 59.78295135498047 60.80950927734375 59.32955169677734 60.85202407836914 58.8812370300293 C 59.40005874633789 59.19805145263672 57.88339996337891 59.36488342285156 56.32234191894531 59.36483764648438 C 52.33664321899414 59.36251831054688 48.63945770263672 58.2618522644043 45.5993766784668 56.38692092895508 C 42.563232421875 58.25626373291016 38.87316513061523 59.35231018066406 34.89010620117188 59.3524055480957 C 34.88572692871094 59.3524055480957 34.88187408447266 59.3524055480957 34.87749099731445 59.35240173339844 C 24.78369331359863 59.34655380249023 16.54754257202148 52.29763412475586 16.12412643432617 43.46931838989258 C 7.022325992584229 42.32165145874023 0.01817592047154903 35.40431976318359 0.01330925337970257 27.04756927490234 C 0.007992586120963097 17.89070320129395 8.405627250671387 10.47243785858154 18.76685905456543 10.47870254516602 C 20.67374229431152 10.47980213165283 22.51424217224121 10.73215293884277 24.24949264526367 11.20043563842773 C 26.77550506591797 4.694528579711914 33.75732040405273 0.02063236013054848 41.97953796386719 0.02063236013054848 C 41.98405456542969 0.02063236013054848 41.98759078979492 0.02063332311809063 41.99210739135742 0.02063594199717045 C 48.53434371948242 0.02443594112992287 54.29477691650391 2.985535860061646 57.65564346313477 7.47261905670166 C 60.41019058227539 6.070603370666504 63.60767364501953 5.269501686096191 67.01137542724609 5.27168607711792 C 72.61086273193359 5.274935722351074 77.63722229003906 7.443619251251221 81.07670593261719 10.88106918334961 C 83.78772735595703 9.537883758544922 86.91387939453125 8.773300170898438 90.24554443359375 8.775118827819824 C 97.48890686035156 8.779318809509277 103.7757568359375 12.41013622283936 106.9057769775391 17.72235298156738 C 107.8833084106445 17.58413696289062 108.886344909668 17.51269721984863 109.9074249267578 17.51305198669434 C 120.2705459594727 17.51905250549316 128.6740875244141 24.94521903991699 128.6793975830078 34.10208511352539 C 128.6847229003906 43.25503921508789 120.2963180541992 50.67066192626953 109.9392776489258 50.67098999023438 C 108.22021484375 50.6706428527832 106.5517654418945 50.46628952026367 104.9693450927734 50.08316802978516 C 103.9875564575195 53.81047058105469 101.5818557739258 57.05380249023438 98.28830718994141 59.34151840209961 C 98.29709625244141 59.48761749267578 98.30354309082031 59.63440322875977 98.30994415283203 59.78146743774414 C 99.45585632324219 61.74473571777344 100.1067962646484 63.98857116699219 100.1081924438477 66.37173461914062 C 100.1126556396484 74.07872772216797 93.31900787353516 80.32442474365234 84.93662261962891 80.32442474365234 Z" stroke="none" fill="#707070"/>
        </g>
        <rect id="Rechteck_11" data-name="Rechteck 11" width="80.271" height="7.995" rx="3.997" transform="translate(48.331 148.536) rotate(-90)" fill="#707070"/>
      </g>
      <g id="Gruppe_3" data-name="Gruppe 3" transform="translate(52.599 34.562) rotate(17)">
        <g id="Henkel-2" data-name="Henkel" transform="translate(56.224 144.48) rotate(180)" fill="#ededed">
          <path d="M 46.22579956054688 80.02999877929688 L 10.00530052185059 80.02999877929688 C 4.609830379486084 80.02999877929688 0.2203003764152527 75.64087677001953 0.2203003764152527 70.24591064453125 C 0.2203003764152527 64.85092926025391 4.609830379486084 60.46179962158203 10.00530052185059 60.46179962158203 L 36.14490127563477 60.46179962158203 L 36.39490127563477 60.46179962158203 L 36.39490127563477 60.21179962158203 L 36.39490127563477 20.07359886169434 L 36.39490127563477 19.82359886169434 L 36.14490127563477 19.82359886169434 L 10.03950023651123 19.82359886169434 C 4.644530296325684 19.82359886169434 0.2554003894329071 15.43446922302246 0.2554003894329071 10.03949928283691 C 0.2554003894329071 4.644029140472412 4.644530296325684 0.2544990479946136 10.03950023651123 0.2544990479946136 L 45.4069709777832 0.2544990479946136 L 45.41693878173828 0.2544990479946136 L 45.42687225341797 0.2537090480327606 C 45.68951034545898 0.23272904753685 45.95648956298828 0.2220990359783173 46.22040176391602 0.2220990359783173 C 48.21049118041992 0.2220990359783173 50.12704849243164 0.8140390515327454 51.76287078857422 1.933919072151184 C 53.36059951782227 3.027719020843506 54.59056854248047 4.549849033355713 55.31980895996094 6.335739135742188 C 55.80104064941406 7.511649131774902 56.04500198364258 8.757709503173828 56.04500198364258 10.03949928283691 L 56.04500198364258 10.0399694442749 L 56.04500198364258 10.04652881622314 L 56.04500198364258 70.18470001220703 C 56.04500198364258 72.26625061035156 55.40230941772461 74.25498962402344 54.1864013671875 75.93593597412109 C 53.29798889160156 77.17639923095703 52.11700057983398 78.20552825927734 50.77040863037109 78.91303253173828 C 49.37960052490234 79.64376068115234 47.80810165405273 80.02999877929688 46.22579956054688 80.02999877929688 Z" stroke="none"/>
          <path d="M 46.22579574584961 79.78000640869141 C 47.76774978637695 79.78000640869141 49.29903793334961 79.40367889404297 50.65412902832031 78.69171905517578 C 51.96638488769531 78.00225067138672 53.11730575561523 76.99931335449219 53.98384094238281 75.78941345214844 C 55.16871643066406 74.15137481689453 55.79500579833984 72.21329498291016 55.79500579833984 70.18470764160156 L 55.79499435424805 10.04763793945312 L 55.79500579833984 10.03950500488281 C 55.79500579833984 8.790349006652832 55.55730438232422 7.576138019561768 55.08835983276367 6.430237770080566 C 54.3776741027832 4.689771175384521 53.17889404296875 3.20629358291626 51.62165069580078 2.140204668045044 C 50.02759552001953 1.048926830291748 48.15987396240234 0.4721046090126038 46.22040557861328 0.4721046090126038 C 45.96307373046875 0.4721046090126038 45.70278549194336 0.4824712574481964 45.44677352905273 0.5029156804084778 L 45.4069709777832 0.5045046210289001 L 10.03949451446533 0.5045046210289001 C 4.782383918762207 0.5045046210289001 0.5054059028625488 4.781882286071777 0.5054059028625488 10.03950500488281 C 0.5054059028625488 15.29662704467773 4.782383918762207 19.57360458374023 10.03949451446533 19.57360458374023 L 36.64490509033203 19.57360458374023 L 36.64490509033203 60.7118034362793 L 10.00530624389648 60.7118034362793 C 4.747683525085449 60.7118034362793 0.4703059196472168 64.98878479003906 0.4703059196472168 70.24590301513672 C 0.4703059196472168 75.50302886962891 4.747683525085449 79.78000640869141 10.00530624389648 79.78000640869141 L 46.22579574584961 79.78000640869141 M 46.22579574584961 80.28000640869141 L 10.00530624389648 80.28000640869141 C 4.463106155395508 80.28000640869141 -0.02969406917691231 75.78810119628906 -0.02969406917691231 70.24590301513672 C -0.02969406917691231 64.70370483398438 4.463106155395508 60.2118034362793 10.00530624389648 60.2118034362793 L 36.14490509033203 60.2118034362793 L 36.14490509033203 20.07360458374023 L 10.03949451446533 20.07360458374023 C 4.49820613861084 20.07360458374023 0.005405930802226067 15.5808048248291 0.005405930802226067 10.03950500488281 C 0.005405930802226067 4.497304439544678 4.49820613861084 0.004504597280174494 10.03949451446533 0.004504597280174494 L 45.4069709777832 0.004504597280174494 C 45.67520523071289 -0.01691762544214725 45.94665145874023 -0.02789540216326714 46.22040557861328 -0.02789540216326714 C 50.43739318847656 -0.02789540216326714 54.04964065551758 2.563793420791626 55.55126190185547 6.241226673126221 C 56.0307502746582 7.412893295288086 56.29500579833984 8.695216178894043 56.29500579833984 10.03950500488281 C 56.29500579833984 10.04086017608643 56.29499435424805 10.04222679138184 56.29498291015625 10.04357147216797 C 56.29499435424805 10.04493808746338 56.29500579833984 10.04623794555664 56.29500579833984 10.04760456085205 L 56.29500579833984 70.18470764160156 C 56.29500579833984 72.38726806640625 55.58827209472656 74.42446136474609 54.38896179199219 76.08245849609375 C 52.56866073608398 78.62408447265625 49.59090423583984 80.28000640869141 46.22579574584961 80.28000640869141 Z" stroke="none" fill="#707070"/>
        </g>
        <rect id="Rechteck_15" data-name="Rechteck 15" width="118.523" height="150.448" rx="30" transform="translate(33.167 29.092)" fill="#ffd417" stroke="#707070" stroke-width="0.5"/>
        <line id="Linie_2" data-name="Linie 2" x1="103.662" y1="0.264" transform="translate(39.532 170.765)" fill="#ffd417" stroke="#707070" stroke-width="2"/>
        <rect id="Rechteck_16" data-name="Rechteck 16" width="80.28" height="8.088" rx="4.044" transform="translate(124.568 148.449) rotate(-90)" fill="#707070"/>
        <ellipse id="Ellipse_46" data-name="Ellipse 46" cx="4.018" cy="4.011" rx="4.018" ry="4.011" transform="translate(56.251 88.282)" fill="#d1ae11"/>
        <ellipse id="Ellipse_47" data-name="Ellipse 47" cx="4.018" cy="4.011" rx="4.018" ry="4.011" transform="translate(68.274 156.51)" fill="#ffec98"/>
        <ellipse id="Ellipse_48" data-name="Ellipse 48" cx="4.018" cy="4.011" rx="4.018" ry="4.011" transform="translate(112.504 152.47)" fill="#d1ae11"/>
        <ellipse id="Ellipse_49" data-name="Ellipse 49" cx="4.018" cy="4.011" rx="4.018" ry="4.011" transform="translate(60.242 140.459)" fill="#ac8f0e"/>
        <ellipse id="Ellipse_50" data-name="Ellipse 50" cx="2.009" cy="2.006" rx="2.009" ry="2.006" transform="translate(60.249 128.418)" fill="#ffec98"/>
        <ellipse id="Ellipse_51" data-name="Ellipse 51" cx="4.018" cy="4.011" rx="4.018" ry="4.011" transform="translate(64.286 100.319)" fill="#d1ae11"/>
        <ellipse id="Ellipse_52" data-name="Ellipse 52" cx="2.009" cy="2.006" rx="2.009" ry="2.006" transform="translate(84.366 140.445)" fill="#ac8f0e"/>
        <ellipse id="Ellipse_53" data-name="Ellipse 53" cx="4.018" cy="4.011" rx="4.018" ry="4.011" transform="translate(132.631 112.321)" fill="#ffec98"/>
        <ellipse id="Ellipse_54" data-name="Ellipse 54" cx="2.009" cy="2.006" rx="2.009" ry="2.006" transform="translate(112.553 68.181)" fill="#d1ae11"/>
        <ellipse id="Ellipse_55" data-name="Ellipse 55" cx="4.018" cy="4.011" rx="4.018" ry="4.011" transform="translate(80.376 88.268)" fill="#ac8f0e"/>
        <ellipse id="Ellipse_56" data-name="Ellipse 56" cx="4.018" cy="4.011" rx="4.018" ry="4.011" transform="translate(104.488 108.323)" fill="#ffec98"/>
        <ellipse id="Ellipse_57" data-name="Ellipse 57" cx="2.009" cy="2.006" rx="2.009" ry="2.006" transform="translate(116.557 96.275)" fill="#d1ae11"/>
        <ellipse id="Ellipse_58" data-name="Ellipse 58" cx="2.009" cy="2.006" rx="2.009" ry="2.006" transform="translate(64.297 80.25)" fill="#ac8f0e"/>
        <ellipse id="Ellipse_59" data-name="Ellipse 59" cx="4.018" cy="4.011" rx="4.018" ry="4.011" transform="translate(44.178 108.358)" fill="#ffec98"/>
        <ellipse id="Ellipse_60" data-name="Ellipse 60" cx="4.018" cy="4.011" rx="4.018" ry="4.011" transform="translate(136.67 80.208)" fill="#d1ae11"/>
        <ellipse id="Ellipse_61" data-name="Ellipse 61" cx="2.009" cy="2.006" rx="2.009" ry="2.006" transform="translate(136.63 148.442)" fill="#ac8f0e"/>
        <ellipse id="Ellipse_62" data-name="Ellipse 62" cx="2.009" cy="2.006" rx="2.009" ry="2.006" transform="translate(40.169 88.292)" fill="#ffec98"/>
        <ellipse id="Ellipse_63" data-name="Ellipse 63" cx="2.009" cy="2.006" rx="2.009" ry="2.006" transform="translate(92.428 104.316)" fill="#d1ae11"/>
        <ellipse id="Ellipse_64" data-name="Ellipse 64" cx="2.009" cy="2.006" rx="2.009" ry="2.006" transform="translate(68.295 120.386)" fill="#ac8f0e"/>
        <ellipse id="Ellipse_65" data-name="Ellipse 65" cx="2.009" cy="2.006" rx="2.009" ry="2.006" transform="translate(112.515 132.401)" fill="#ffec98"/>
        <ellipse id="Ellipse_66" data-name="Ellipse 66" cx="2.009" cy="2.006" rx="2.009" ry="2.006" transform="translate(92.419 120.372)" fill="#d1ae11"/>
        <rect id="Rechteck_17" data-name="Rechteck 17" width="80.28" height="8.088" rx="4.044" transform="translate(52.196 148.491) rotate(-90)" fill="#707070"/>
        <rect id="Rechteck_18" data-name="Rechteck 18" width="80.28" height="8.088" rx="4.044" transform="translate(76.32 148.477) rotate(-90)" fill="#707070"/>
        <g id="Schaum-2" data-name="Schaum" transform="translate(156.777 80.206) rotate(180)" fill="#fff">
          <path d="M 41.95238876342773 80.01203918457031 L 41.93997192382812 80.01203918457031 C 34.03388977050781 80.01203918457031 27.00222206115723 75.58332061767578 24.44253921508789 68.99173736572266 L 24.3612232208252 68.78234100341797 L 24.14434051513672 68.84087371826172 C 22.39533996582031 69.31301116943359 20.57254028320312 69.55292510986328 18.72658920288086 69.55399322509766 L 18.71417236328125 69.55399322509766 C 13.76645660400391 69.55399322509766 9.117656707763672 67.85308837890625 5.624139785766602 64.76461029052734 C 2.139139652252197 61.68365859985352 0.2212562412023544 57.5891227722168 0.2237895727157593 53.23525619506836 C 0.2260895818471909 49.28474044799805 1.849639534950256 45.47107315063477 4.795389652252197 42.49675750732422 C 7.720406055450439 39.54337310791016 11.74082279205322 37.61307525634766 16.11602210998535 37.06140899658203 L 16.32440567016602 37.03514099121094 L 16.33447265625 36.82534027099609 C 16.53625679016113 32.61684036254883 18.54714012145996 28.68492317199707 21.99670600891113 25.75390815734863 C 25.46457290649414 22.80734062194824 30.02503967285156 21.18305778503418 34.83805465698242 21.18027496337891 L 34.85052108764648 21.18027496337891 C 38.65953826904297 21.18027496337891 42.31725692749023 22.19289016723633 45.42823791503906 24.10864067077637 L 45.55942153930664 24.1894416809082 L 45.69055557250977 24.10855674743652 C 48.80642318725586 22.18694114685059 52.46902465820312 21.17005729675293 56.28239059448242 21.1678409576416 L 56.29475784301758 21.1678409576416 C 57.80398941040039 21.1678409576416 59.30592346191406 21.3286247253418 60.75882339477539 21.64570808410645 L 61.09288787841797 21.71862411499023 L 61.06103897094727 21.378173828125 C 61.02033996582031 20.94320678710938 60.99982452392578 20.49370765686035 61.00007247924805 20.04212379455566 C 61.00214004516602 16.4849910736084 62.27900695800781 13.10300731658936 64.69260406494141 10.26180744171143 C 65.85584259033203 8.892490386962891 67.24774169921875 7.69649076461792 68.82960510253906 6.707024097442627 C 70.43410491943359 5.703407287597656 72.19652557373047 4.936240673065186 74.06792449951172 4.426840782165527 L 74.12834167480469 4.410407543182373 L 74.17387390136719 4.367424011230469 C 75.55145263671875 3.067007303237915 77.16550445556641 2.044490814208984 78.97115325927734 1.328290700912476 C 80.84188842773438 0.5862907767295837 82.832275390625 0.2094574272632599 84.88702392578125 0.2082740813493729 L 84.89667510986328 0.2082740813493729 C 88.88838958740234 0.2082740813493729 92.63934326171875 1.636024117469788 95.45854187011719 4.228507518768311 C 98.27208709716797 6.81579065322876 99.82040405273438 10.25435733795166 99.81829071044922 13.91080760955811 C 99.81698608398438 16.1644401550293 99.20695495605469 18.3997745513916 98.05415344238281 20.37519073486328 L 98.02280426025391 20.42887496948242 L 98.02027130126953 20.49100685119629 C 98.01350402832031 20.65712356567383 98.00663757324219 20.79532432556152 97.99868774414062 20.92595672607422 L 97.99014282226562 21.0662899017334 L 98.10560607910156 21.1464900970459 C 101.4057693481445 23.43854141235352 103.7433929443359 26.67624092102051 104.6878433227539 30.26315689086914 L 104.7502365112305 30.50014114379883 L 104.9884262084961 30.44249153137207 C 106.5765380859375 30.05805778503418 108.224723815918 29.86265754699707 109.8872375488281 29.86170768737793 L 109.8996887207031 29.86170768737793 C 114.847770690918 29.86170768737793 119.4966888427734 31.56260681152344 122.9900741577148 34.65109252929688 C 126.4748229980469 37.73194122314453 128.392578125 41.82649230957031 128.3900451660156 46.18045806884766 C 128.3875274658203 50.53645706176758 126.4635238647461 54.63437271118164 122.9724884033203 57.71935653686523 C 119.472785949707 60.81199264526367 114.8187408447266 62.51677322387695 109.8676910400391 62.5196418762207 L 109.8554763793945 62.5196418762207 C 108.8660430908203 62.5196418762207 107.8720703125 62.45005798339844 106.9011764526367 62.31280899047852 L 106.7356567382812 62.28940582275391 L 106.6507873535156 62.43340682983398 C 105.1113052368164 65.04579162597656 102.7970428466797 67.24913787841797 99.95820617675781 68.80522155761719 C 97.03500366210938 70.40755462646484 93.66268920898438 71.25555419921875 90.20578765869141 71.25756072998047 L 90.19333648681641 71.25756072998047 C 87.02262115478516 71.25756072998047 83.89473724365234 70.53832244873047 81.14787292480469 69.17760467529297 L 80.98710632324219 69.09795379638672 L 80.86019134521484 69.22479248046875 C 79.13820648193359 70.94569396972656 77.07234191894531 72.30420684814453 74.71995544433594 73.26260375976562 C 72.28343963623047 74.25528717041016 69.67660522460938 74.75942230224609 66.97187042236328 74.76099395751953 L 66.95950317382812 74.76099395751953 C 63.71479034423828 74.76099395751953 60.52292251586914 74.00932312011719 57.72897338867188 72.58725738525391 L 57.54153823852539 72.49185943603516 L 57.41547393798828 72.66019439697266 C 53.97030639648438 77.26005554199219 48.18972396850586 80.0084228515625 41.95238876342773 80.01203918457031 Z" stroke="none"/>
          <path d="M 84.88716125488281 0.4582748413085938 C 82.86407470703125 0.459442138671875 80.90464019775391 0.8303375244140625 79.06333923339844 1.560676574707031 C 77.28726196289062 2.265144348144531 75.69993591308594 3.270622253417969 74.34547424316406 4.5491943359375 L 74.25440979003906 4.635154724121094 L 74.13357543945312 4.668060302734375 C 72.28582763671875 5.1710205078125 70.54590606689453 5.928337097167969 68.96217346191406 6.918960571289062 C 67.40212249755859 7.894790649414062 66.02972412109375 9.073944091796875 64.88314056396484 10.42366027832031 C 62.50840759277344 13.21910858154297 61.25210571289062 16.54517364501953 61.25007629394531 20.04225921630859 C 61.24982452392578 20.48604202270508 61.26997375488281 20.92767333984375 61.30995941162109 21.35487365722656 L 61.3736572265625 22.03578948974609 L 60.70550537109375 21.88995742797852 C 59.27018737792969 21.57669067382812 57.78618621826172 21.41783905029297 56.29475402832031 21.41783905029297 L 56.28252410888672 21.41783905029297 C 52.51548767089844 21.42002487182617 48.89822387695312 22.42404174804688 45.82179260253906 24.32135772705078 L 45.55952453613281 24.48308944702148 L 45.29714202880859 24.32152557373047 C 42.22562408447266 22.43005752563477 38.61322021484375 21.43027496337891 34.85050964355469 21.43027496337891 L 34.83817291259766 21.43027496337891 C 30.08437347412109 21.43302536010742 25.58133697509766 23.03619003295898 22.1585693359375 25.94442367553711 C 18.76230621337891 28.83015823364258 16.78260803222656 32.69867324829102 16.58417510986328 36.83732223510742 L 16.56405639648438 37.25688934326172 L 16.14729309082031 37.30944061279297 C 11.82730865478516 37.85414123535156 7.858871459960938 39.75884246826172 4.9730224609375 42.67267227172852 C 2.073905944824219 45.59990692138672 0.4760589599609375 49.35115814208984 0.473785400390625 53.23538970947266 C 0.4713134765625 57.51655578613281 2.359207153320312 61.54452514648438 5.789741516113281 64.57730865478516 C 9.237525939941406 67.62535858154297 13.82750701904297 69.30399322509766 18.71417236328125 69.30399322509766 L 18.72645568847656 69.30399322509766 C 20.55045318603516 69.30294036865234 22.35137176513672 69.06592559814453 24.07917022705078 68.59952545166016 L 24.51292419433594 68.482421875 L 24.67555999755859 68.90123748779297 C 27.19821929931641 75.39742279052734 34.13625335693359 79.76203918457031 41.93997192382812 79.76203918457031 L 41.95225524902344 79.76203918457031 C 48.11128997802734 79.75846099853516 53.81712341308594 77.04753875732422 57.21537017822266 72.51032257080078 L 57.46752166748047 72.17366027832031 L 57.84237670898438 72.36445617675781 C 60.60140991210938 73.76872253417969 63.75405883789062 74.51099395751953 66.95950317382812 74.51099395751953 L 66.97174072265625 74.51099395751953 C 69.64400482177734 74.50943756103516 72.21915435791016 74.01152038574219 74.62564086914062 73.03107452392578 C 76.94700622558594 72.08530426025391 78.98515319824219 70.74519348144531 80.68345642089844 69.04795837402344 L 80.93728637695312 68.79428863525391 L 81.25885772705078 68.95359039306641 C 83.97138977050781 70.29730987548828 87.06089019775391 71.00756072998047 90.19334411621094 71.00756072998047 L 90.20565795898438 71.00756072998047 C 93.62070465087891 71.00557708740234 96.95152282714844 70.16820526123047 99.83804321289062 68.58599090576172 C 102.6374206542969 67.05152130126953 104.9187545776367 64.88011169433594 106.4353942871094 62.30647277832031 L 106.6051254272461 62.01845550537109 L 106.9361419677734 62.06523895263672 C 107.8955688476562 62.20087432861328 108.8777923583984 62.26963806152344 109.85546875 62.26963806152344 L 109.8675537109375 62.26963806152344 C 114.7576217651367 62.26680755615234 119.3529205322266 60.58427429199219 122.8069534301758 57.53200531005859 C 126.2435760498047 54.49512481689453 128.1375579833984 50.46369171142578 128.1400451660156 46.18032455444336 C 128.1425323486328 41.8990592956543 126.2547760009766 37.87108993530273 122.8244705200195 34.8383903503418 C 119.376838684082 31.79034042358398 114.7867202758789 30.1117057800293 109.8996887207031 30.1117057800293 L 109.8873748779297 30.1117057800293 C 108.2446212768555 30.11264038085938 106.6161575317383 30.30569076538086 105.0472259521484 30.68547439575195 L 104.5708541870117 30.80077362060547 L 104.4460754394531 30.32682418823242 C 103.5167541503906 26.79734039306641 101.21435546875 23.60995864868164 97.96300506591797 21.35182571411133 L 97.7320556640625 21.19142532348633 L 97.74916076660156 20.91075897216797 C 97.75692749023438 20.78325653076172 97.76388549804688 20.64263916015625 97.77047729492188 20.48087310791016 L 97.77552032470703 20.35659027099609 L 97.83820343017578 20.24917221069336 C 98.96875762939453 18.31190872192383 99.56700897216797 16.12009429931641 99.56829071044922 13.91067504882812 C 99.57037353515625 10.32510375976562 98.05073547363281 6.951988220214844 95.28932189941406 4.412704467773438 C 92.51641845703125 1.862876892089844 88.82557678222656 0.4584884643554688 84.89666748046875 0.4582748413085938 L 84.88716125488281 0.4582748413085938 M 84.89666748046875 -0.04172515869140625 C 93.27962493896484 -0.04125213623046875 100.07275390625 6.203948974609375 100.0682907104492 13.91095733642578 C 100.0669097900391 16.29410552978516 99.41575622558594 18.53795623779297 98.27005767822266 20.50119018554688 C 98.26406860351562 20.64829254150391 98.25712585449219 20.79505920410156 98.24822235107422 20.94115829467773 C 101.5421752929688 23.22887420654297 103.9481887817383 26.47220611572266 104.9295883178711 30.19950866699219 C 106.5123138427734 29.81639099121094 108.1792297363281 29.61181259155273 109.8996887207031 29.61170196533203 C 120.256477355957 29.61170196533203 128.6453704833984 37.02763748168945 128.6400451660156 46.18060684204102 C 128.6347351074219 55.33745574951172 120.2307434082031 62.76362609863281 109.8678436279297 62.76963806152344 C 108.8472366333008 62.77066802978516 107.8437881469727 62.69852447509766 106.8661575317383 62.56032562255859 C 103.7356719970703 67.87254333496094 97.44927215576172 71.50335693359375 90.20594024658203 71.50756072998047 C 86.87602996826172 71.50884246826172 83.74833679199219 70.74478912353516 81.03691101074219 69.40162658691406 C 77.59730529785156 72.83905792236328 72.57115173339844 75.00774383544922 66.97202301025391 75.01099395751953 C 63.56311798095703 75.01310729980469 60.37014770507812 74.21207427978516 57.61557006835938 72.81005859375 C 54.25487518310547 77.29714202880859 48.49500274658203 80.25823974609375 41.95253753662109 80.26203918457031 C 41.94802093505859 80.26204681396484 41.94448852539062 80.26204681396484 41.93996429443359 80.26204681396484 C 33.71794891357422 80.26204681396484 26.73590087890625 75.58815002441406 24.20947265625 69.08224487304688 C 22.47470855712891 69.55052185058594 20.63402557373047 69.80288696289062 18.72673797607422 69.80399322509766 C 8.3636474609375 69.81085205078125 -0.031524658203125 62.39199066162109 -0.026214599609375 53.235107421875 C -0.0213470458984375 44.87835693359375 6.982559204101562 37.96104049682617 16.08473968505859 36.81337356567383 C 16.50804138183594 27.98504257202148 24.74395751953125 20.93612289428711 34.837890625 20.93027496337891 C 34.84226989746094 20.93027114868164 34.84612274169922 20.93027114868164 34.85050201416016 20.93027114868164 C 38.83377838134766 20.93027114868164 42.52369689941406 22.02641296386719 45.559326171875 23.89577484130859 C 48.5994873046875 22.02083969116211 52.29689025878906 20.92015838623047 56.28224182128906 20.91783905029297 C 57.84395599365234 20.91765975952148 59.36048889160156 21.08462524414062 60.81212615966797 21.40145874023438 C 60.77017211914062 20.953125 60.74982452392578 20.49972534179688 60.75007629394531 20.0419921875 C 60.75442504882812 12.58430480957031 66.33365631103516 6.273025512695312 74.00225830078125 4.18560791015625 C 76.76210784912109 1.580375671386719 80.61882019042969 -0.0392608642578125 84.88687133789062 -0.04172515869140625 C 84.89045715332031 -0.04172515869140625 84.89308166503906 -0.04172515869140625 84.89666748046875 -0.04172515869140625 Z" stroke="none" fill="#707070"/>
        </g>
        <rect id="Rechteck_19" data-name="Rechteck 19" width="80.28" height="8.088" rx="4.044" transform="translate(100.444 148.463) rotate(-90)" fill="#707070"/>
      </g>
      <g id="Rechteck_20" data-name="Rechteck 20" transform="matrix(0.998, -0.07, 0.07, 0.998, 156.205, 1.329)" fill="#ffd417" stroke="#707070" stroke-width="0.5">
        <rect width="12.07" height="40.133" rx="6.035" stroke="none"/>
        <rect x="0.25" y="0.25" width="11.57" height="39.633" rx="5.785" fill="none"/>
      </g>
      <g id="Rechteck_21" data-name="Rechteck 21" transform="matrix(0.777, 0.629, -0.629, 0.777, 242.635, 21.98)" fill="#ffd417" stroke="#707070" stroke-width="0.5">
        <rect width="12.014" height="40.151" rx="6.007" stroke="none"/>
        <rect x="0.25" y="0.25" width="11.514" height="39.651" rx="5.757" fill="none"/>
      </g>
      <g id="Rechteck_22" data-name="Rechteck 22" transform="translate(201.601 0) rotate(14)" fill="#ffd417" stroke="#707070" stroke-width="0.5">
        <rect width="12.043" height="40.13" rx="6.022" stroke="none"/>
        <rect x="0.25" y="0.25" width="11.543" height="39.63" rx="5.772" fill="none"/>
      </g>
      <g id="Ellipse_78" data-name="Ellipse 78" transform="translate(115.367 36.978)" fill="#fff" stroke="#707070" stroke-width="0.5">
        <ellipse cx="6.032" cy="6.02" rx="6.032" ry="6.02" stroke="none"/>
        <ellipse cx="6.032" cy="6.02" rx="5.782" ry="5.77" fill="none"/>
      </g>
      <g id="Ellipse_79" data-name="Ellipse 79" transform="translate(211.881 69.082)" fill="#fff" stroke="#707070" stroke-width="0.5">
        <ellipse cx="7.037" cy="7.023" rx="7.037" ry="7.023" stroke="none"/>
        <ellipse cx="7.037" cy="7.023" rx="6.787" ry="6.773" fill="none"/>
      </g>
      <g id="Ellipse_80" data-name="Ellipse 80" transform="translate(175.688 53.03)" fill="#fff" stroke="#707070" stroke-width="0.5">
        <ellipse cx="4.021" cy="4.013" rx="4.021" ry="4.013" stroke="none"/>
        <ellipse cx="4.021" cy="4.013" rx="3.771" ry="3.763" fill="none"/>
      </g>
      <g id="Ellipse_81" data-name="Ellipse 81" transform="translate(99.282 16.913)" fill="#fff" stroke="#707070" stroke-width="0.5">
        <ellipse cx="4.021" cy="4.013" rx="4.021" ry="4.013" stroke="none"/>
        <ellipse cx="4.021" cy="4.013" rx="3.771" ry="3.763" fill="none"/>
      </g>
      <g id="Ellipse_82" data-name="Ellipse 82" transform="translate(71.132 45.004)" fill="#fff" stroke="#707070" stroke-width="0.5">
        <ellipse cx="4.021" cy="4.013" rx="4.021" ry="4.013" stroke="none"/>
        <ellipse cx="4.021" cy="4.013" rx="3.771" ry="3.763" fill="none"/>
      </g>
      <g id="Ellipse_83" data-name="Ellipse 83" transform="translate(248.074 69.082)" fill="#fff" stroke="#707070" stroke-width="0.5">
        <ellipse cx="4.021" cy="4.013" rx="4.021" ry="4.013" stroke="none"/>
        <ellipse cx="4.021" cy="4.013" rx="3.771" ry="3.763" fill="none"/>
      </g>
      <g id="Ellipse_84" data-name="Ellipse 84" transform="translate(236.009 53.03)" fill="#fff" stroke="#707070" stroke-width="0.5">
        <ellipse cx="4.021" cy="4.013" rx="4.021" ry="4.013" stroke="none"/>
        <ellipse cx="4.021" cy="4.013" rx="3.771" ry="3.763" fill="none"/>
      </g>
    </g>
  </g>
</svg>
